# xmcd
# 
# Track frame offsets:
#     150
#     16054
#     32656
#     46010
#     60775
#     81665
#     99618
#     116651
#     123858
#     143412
#     155591
#     165784
# 
# Disc length: 2438
# 
# Revision: 0
# Processed by: cddbd v1.5.2PL0 Copyright (c) Steve Scherf et al.
# Submitted via: FeyConverter v1.1.0
# 
DISCID=8309840c
DTITLE=Long Ryders - Madrid Spain 1986.09.18 (Soundboard) CD2
DYEAR=1986
DGENRE=Country
TTITLE0=Capturing the Flag
TTITLE1=I Had a Dream
TTITLE2=Final Wild Son
TTITLE3=The Upper Hand
TTITLE4=State of My Union
TTITLE5=10-5-60 > Mrs Robinson
TTITLE6=Looking for Lewis and Clark
TTITLE7=encore break
TTITLE8=You Just Can't Ride the Boxcars Anymore
TTITLE9=Run Dusty Run
TTITLE10=encore break
TTITLE11=(What's So Funny About) Peace Love and Understanding
EXTD=
EXTT0=
EXTT1=
EXTT2=
EXTT3=
EXTT4=
EXTT5=
EXTT6=
EXTT7=
EXTT8=
EXTT9=
EXTT10=
EXTT11=
PLAYORDER=
